<svg viewBox="0 0 1116 1024" version="1.1" xmlns="http://www.w3.org/2000/svg" width="256" height="256">
  <path
    d="M1020.323126 10.506641A130.000557 130.000557 0 0 0 969.120876 0H147.75695a154.725712 154.725712 0 0 0-52.358211 9.315682A147.791949 147.791949 0 0 0 0 146.600989V878.554971a144.53506 144.53506 0 0 0 96.5547 136.129347 154.725712 154.725712 0 0 0 52.35821 9.315682h820.207966a147.966943 147.966943 0 0 0 147.756949-147.75695V146.600989a144.53506 144.53506 0 0 0-96.554699-136.095348zM446.736731 329.203748a111.719181 111.719181 0 1 1-111.684183-109.372262A110.493223 110.493223 0 0 1 446.771729 329.203748z m522.384145 620.094805H147.75695a73.545486 73.545486 0 0 1-72.145534-58.171011 56.700062 56.700062 0 0 1-1.154961-14.009522v-55.85809l219.901484-186.140638 79.113296 75.611415a113.540119 113.540119 0 0 0 150.068871 5.813802L894.769417 409.404007c70.954575 76.802375 119.844904 127.969626 150.068871 154.725711v311.693347a76.557383 76.557383 0 0 1-75.612416 73.300494z"
    fill="#DEE0E4" p-id="13607"></path>
</svg>